<mxfile host="app.diagrams.net" modified="2022-06-28T01:57:50.394Z" agent="5.0 (Macintosh; Intel Mac OS X 10_15_7) AppleWebKit/537.36 (KHTML, like Gecko) Chrome/103.0.0.0 Safari/537.36" etag="HULg7ZxfbqpbVvHJ4cjJ" version="20.0.1" type="github">
  <diagram id="3228e29e-7158-1315-38df-8450db1d8a1d" name="Page-1">
    <mxGraphModel dx="569" dy="-381" grid="0" gridSize="10" guides="1" tooltips="1" connect="1" arrows="1" fold="1" page="1" pageScale="1" pageWidth="400" pageHeight="180" background="#EFF1F3" math="0" shadow="0">
      <root>
        <mxCell id="0" />
        <mxCell id="1" parent="0" />
        <mxCell id="Wp8-4_sJjOrjRNukB6Yj-1" value="cnt_what" style="rounded=0;whiteSpace=wrap;html=1;fillColor=#4A919B;gradientColor=none;fontSize=12;fontColor=#FFFFFF;" parent="1" vertex="1">
          <mxGeometry x="148" y="1108" width="123" height="25" as="geometry" />
        </mxCell>
        <mxCell id="Wp8-4_sJjOrjRNukB6Yj-2" value="cnt" style="rounded=0;whiteSpace=wrap;html=1;fillColor=#4A919B;gradientColor=none;fontSize=12;fontColor=#FFFFFF;" parent="1" vertex="1">
          <mxGeometry x="270" y="1108" width="105" height="25" as="geometry" />
        </mxCell>
        <mxCell id="Wp8-4_sJjOrjRNukB6Yj-3" value="id" style="rounded=0;whiteSpace=wrap;html=1;fillColor=#4A919B;gradientColor=none;fontSize=12;fontColor=#FFFFFF;" parent="1" vertex="1">
          <mxGeometry x="43" y="1108" width="105" height="25" as="geometry" />
        </mxCell>
        <mxCell id="Wp8-4_sJjOrjRNukB6Yj-4" value="&lt;font style=&quot;font-size: 12px;&quot;&gt;未发送的短信数量&lt;/font&gt;" style="rounded=0;whiteSpace=wrap;html=1;fillColor=#9AC7BF;gradientColor=none;fontSize=12;fontColor=#000000;" parent="1" vertex="1">
          <mxGeometry x="148" y="1133" width="122" height="25" as="geometry" />
        </mxCell>
        <mxCell id="Wp8-4_sJjOrjRNukB6Yj-5" value="100" style="rounded=0;whiteSpace=wrap;html=1;fillColor=#9AC7BF;gradientColor=none;fontSize=12;fontColor=#000000;" parent="1" vertex="1">
          <mxGeometry x="270" y="1133" width="105" height="25" as="geometry" />
        </mxCell>
        <mxCell id="Wp8-4_sJjOrjRNukB6Yj-6" value="1" style="rounded=0;whiteSpace=wrap;html=1;fillColor=#9AC7BF;gradientColor=none;fontSize=12;fontColor=#000000;" parent="1" vertex="1">
          <mxGeometry x="43" y="1133" width="105" height="25" as="geometry" />
        </mxCell>
        <mxCell id="Wp8-4_sJjOrjRNukB6Yj-7" value="已发送的短信数量" style="rounded=0;whiteSpace=wrap;html=1;fillColor=#9AC7BF;gradientColor=none;fontSize=12;fontColor=#000000;" parent="1" vertex="1">
          <mxGeometry x="148" y="1158" width="122" height="25" as="geometry" />
        </mxCell>
        <mxCell id="Wp8-4_sJjOrjRNukB6Yj-8" value="1000" style="rounded=0;whiteSpace=wrap;html=1;fillColor=#9AC7BF;gradientColor=none;fontSize=12;fontColor=#000000;" parent="1" vertex="1">
          <mxGeometry x="270" y="1158" width="105" height="25" as="geometry" />
        </mxCell>
        <mxCell id="Wp8-4_sJjOrjRNukB6Yj-9" value="2" style="rounded=0;whiteSpace=wrap;html=1;fillColor=#9AC7BF;gradientColor=none;fontSize=12;fontColor=#000000;" parent="1" vertex="1">
          <mxGeometry x="43" y="1158" width="105" height="25" as="geometry" />
        </mxCell>
        <mxCell id="Wp8-4_sJjOrjRNukB6Yj-10" value="全表行数" style="rounded=0;whiteSpace=wrap;html=1;fillColor=#9AC7BF;gradientColor=none;fontSize=12;fontColor=#000000;" parent="1" vertex="1">
          <mxGeometry x="148" y="1183" width="122" height="25" as="geometry" />
        </mxCell>
        <mxCell id="Wp8-4_sJjOrjRNukB6Yj-11" value="1100" style="rounded=0;whiteSpace=wrap;html=1;fillColor=#9AC7BF;gradientColor=none;fontSize=12;fontColor=#000000;" parent="1" vertex="1">
          <mxGeometry x="270" y="1183" width="105" height="25" as="geometry" />
        </mxCell>
        <mxCell id="Wp8-4_sJjOrjRNukB6Yj-12" value="3" style="rounded=0;whiteSpace=wrap;html=1;fillColor=#9AC7BF;gradientColor=none;fontSize=12;fontColor=#000000;" parent="1" vertex="1">
          <mxGeometry x="43" y="1183" width="105" height="25" as="geometry" />
        </mxCell>
        <mxCell id="Wp8-4_sJjOrjRNukB6Yj-13" value="发给xxx的短信数量" style="rounded=0;whiteSpace=wrap;html=1;fillColor=#9AC7BF;gradientColor=none;fontSize=12;fontColor=#000000;" parent="1" vertex="1">
          <mxGeometry x="148" y="1208" width="122" height="25" as="geometry" />
        </mxCell>
        <mxCell id="Wp8-4_sJjOrjRNukB6Yj-14" value="50" style="rounded=0;whiteSpace=wrap;html=1;fillColor=#9AC7BF;gradientColor=none;fontSize=12;fontColor=#000000;" parent="1" vertex="1">
          <mxGeometry x="270" y="1208" width="105" height="25" as="geometry" />
        </mxCell>
        <mxCell id="Wp8-4_sJjOrjRNukB6Yj-15" value="4" style="rounded=0;whiteSpace=wrap;html=1;fillColor=#9AC7BF;gradientColor=none;fontSize=12;fontColor=#000000;" parent="1" vertex="1">
          <mxGeometry x="43" y="1208" width="105" height="25" as="geometry" />
        </mxCell>
      </root>
    </mxGraphModel>
  </diagram>
</mxfile>
